<svg width="23" height="22" viewBox="0 0 23 22" fill="none" xmlns="http://www.w3.org/2000/svg">
<path d="M20.2617 10.1975L20.7687 9.82408L20.2617 10.1975ZM0.53796 4.96078C0.301723 5.21605 0.317148 5.61449 0.572413 5.85073L4.7322 9.70044C4.98747 9.93667 5.38591 9.92125 5.62214 9.66598C5.85838 9.41072 5.84296 9.01228 5.58769 8.77604L1.8901 5.35407L5.31207 1.65649C5.54831 1.40122 5.53288 1.00278 5.27762 0.766541C5.02235 0.530304 4.62391 0.545729 4.38767 0.800993L0.53796 4.96078ZM20.6632 21.4914C21.2022 21.8171 21.2024 21.8168 21.2026 21.8165C21.2026 21.8164 21.2028 21.8161 21.203 21.8159C21.2033 21.8154 21.2036 21.8148 21.204 21.8141C21.2048 21.8127 21.2059 21.811 21.2071 21.8089C21.2096 21.8048 21.2129 21.7992 21.217 21.7922C21.2252 21.7782 21.2365 21.7585 21.2507 21.7334C21.2791 21.6832 21.3187 21.6111 21.367 21.5186C21.4634 21.3339 21.5944 21.0675 21.7377 20.732C22.0238 20.0622 22.3619 19.1105 22.5701 17.9795C22.9871 15.7137 22.8853 12.6982 20.7687 9.82408L19.7546 10.5709C21.6068 13.0861 21.7057 15.7176 21.3314 17.7514C21.1438 18.7702 20.8382 19.6315 20.5794 20.2372C20.4503 20.5395 20.3336 20.7765 20.2505 20.9357C20.2089 21.0153 20.1759 21.0753 20.1539 21.1142C20.1429 21.1336 20.1347 21.1478 20.1297 21.1565C20.1271 21.1608 20.1254 21.1638 20.1244 21.1653C20.124 21.1661 20.1237 21.1665 20.1237 21.1666C20.1237 21.1666 20.1237 21.1666 20.1238 21.1665C20.1238 21.1664 20.1239 21.1662 20.1239 21.1662C20.124 21.166 20.1242 21.1658 20.6632 21.4914ZM20.7687 9.82408C18.6577 6.95747 15.7016 5.61891 12.2956 5.03345C8.91372 4.45214 5.0193 4.6027 0.975797 4.75924L1.02452 6.01781C5.10449 5.85986 8.85645 5.72028 12.0822 6.27476C15.284 6.82511 17.8968 8.04828 19.7546 10.5709L20.7687 9.82408Z" fill="#ECECEC"/>
</svg>
