<svg width="23" height="22" viewBox="0 0 23 22" fill="none" xmlns="http://www.w3.org/2000/svg">
<path d="M2.73828 10.1975L2.23128 9.82407L2.73828 10.1975ZM22.462 4.96077C22.6983 5.21604 22.6828 5.61448 22.4276 5.85072L18.2678 9.70043C18.0125 9.93666 17.6141 9.92124 17.3778 9.66597C17.1416 9.41071 17.157 9.01227 17.4123 8.77603L21.1099 5.35406L17.6879 1.65648C17.4517 1.40121 17.4671 1.00277 17.7224 0.76653C17.9776 0.530293 18.3761 0.545718 18.6123 0.800982L22.462 4.96077ZM2.33678 21.4914C1.79778 21.8171 1.79758 21.8168 1.79738 21.8165C1.79738 21.8164 1.79718 21.8161 1.79698 21.8159C1.79668 21.8154 1.79638 21.8148 1.79598 21.8141C1.79518 21.8127 1.79408 21.811 1.79288 21.8089C1.79038 21.8048 1.78708 21.7992 1.78298 21.7922C1.77478 21.7782 1.76348 21.7585 1.74928 21.7334C1.72088 21.6832 1.68128 21.6111 1.63298 21.5186C1.53658 21.3339 1.40558 21.0675 1.26228 20.732C0.976178 20.0622 0.638076 19.1105 0.429876 17.9795C0.0128763 15.7137 0.114677 12.6982 2.23128 9.82407L3.24538 10.5709C1.39318 13.0861 1.29428 15.7176 1.66858 17.7514C1.85618 18.7702 2.16178 19.6315 2.42058 20.2372C2.54968 20.5395 2.66638 20.7765 2.74948 20.9357C2.79108 21.0153 2.82408 21.0753 2.84608 21.1142C2.85708 21.1336 2.86528 21.1478 2.87028 21.1565C2.87288 21.1608 2.87458 21.1638 2.87558 21.1653C2.87598 21.1661 2.87628 21.1665 2.87628 21.1666C2.87628 21.1666 2.87628 21.1666 2.87618 21.1665C2.87618 21.1664 2.87608 21.1662 2.87608 21.1662C2.87598 21.166 2.87578 21.1658 2.33678 21.4914ZM2.23128 9.82407C4.34228 6.95746 7.29838 5.6189 10.7044 5.03344C14.0863 4.45213 17.9807 4.60269 22.0242 4.75923L21.9755 6.0178C17.8955 5.85985 14.1435 5.72027 10.9178 6.27475C7.71598 6.8251 5.10318 8.04827 3.24538 10.5709L2.23128 9.82407Z" fill="#ECECEC"/>
</svg>
